Coordinates
version=1
nRows=20
nColumns=38
inDegrees=no

Units are S.I. units (second, meters, Newtons, ...)
If the header above contains a line with 'inDegrees', this indicates whether rotational values are in degrees (yes) or radians (no).

endheader
time	pelvis_tilt	pelvis_list	pelvis_rotation	pelvis_tx	pelvis_ty	pelvis_tz	hip_flexion_r	hip_adduction_r	hip_rotation_r	knee_angle_r	ankle_angle_r	subtalar_angle_r	mtp_angle_r	hip_flexion_l	hip_adduction_l	hip_rotation_l	knee_angle_l	ankle_angle_l	subtalar_angle_l	mtp_angle_l	lumbar_extension	lumbar_bending	lumbar_rotation	arm_flex_r	arm_add_r	arm_rot_r	elbow_flex_r	pro_sup_r	wrist_flex_r	wrist_dev_r	arm_flex_l	arm_add_l	arm_rot_l	elbow_flex_l	pro_sup_l	wrist_flex_l	wrist_dev_l
0.77	-0.519742	1.33802	2.1634	0.796417	-0.23001	0.98261	0.779708	-0.104379	0.213632	1.14886	-0.091277	0	0	0.311129	-0.00882855	-0.24479	1.30577	-0.301321	0	0	-0.0180813	-0.151957	0.148257	0.0245097	-0.556236	0.937864	0.877598	0.69499	0	0	-0.0473777	-0.423983	0.464833	0.745524	1.0913	0	0
0.78	-0.531443	1.33577	2.17175	0.795645	-0.219743	0.984464	0.767476	-0.110671	0.209804	1.14714	-0.086431	0	0	0.339981	-0.00608679	-0.248741	1.32735	-0.287002	0	0	-0.0211018	-0.156467	0.151747	0.0272314	-0.555696	0.937541	0.876963	0.697916	0	0	-0.0444271	-0.422594	0.462655	0.742982	1.09298	0	0
0.79	-0.542719	1.33309	2.17962	0.794741	-0.20959	0.986303	0.755073	-0.117597	0.205594	1.1447	-0.0808991	0	0	0.369228	-0.00270971	-0.253153	1.34283	-0.272645	0	0	-0.0238646	-0.161102	0.1564	0.0276686	-0.555036	0.932899	0.876644	0.702986	0	0	-0.0399249	-0.420989	0.462884	0.739769	1.09369	0	0
0.8	-0.555468	1.33063	2.1891	0.793717	-0.199448	0.988208	0.740979	-0.125149	0.200457	1.14079	-0.075178	0	0	0.396929	0.000119328	-0.259573	1.35209	-0.259418	0	0	-0.0273424	-0.165968	0.16259	0.0254893	-0.554004	0.923398	0.87635	0.710409	0	0	-0.0331918	-0.419602	0.467046	0.735936	1.093	0	0
0.81	-0.56744	1.32736	2.19804	0.792535	-0.189416	0.989974	0.727746	-0.133889	0.193549	1.13654	-0.0689953	0	0	0.424828	0.00335504	-0.266741	1.35594	-0.242194	0	0	-0.0231743	-0.171314	0.135597	0.0837361	-0.551172	1.026	0.857717	0.648682	0	0	-0.0666932	-0.413474	0.401946	0.744798	1.12306	0	0
0.82	-0.579403	1.3241	2.20734	0.791351	-0.179464	0.991642	0.714829	-0.143207	0.185087	1.1322	-0.0645766	0	0	0.451784	0.00633984	-0.273727	1.35418	-0.229339	0	0	-0.0245749	-0.176784	0.137012	0.0891332	-0.5497	1.03112	0.855401	0.645856	0	0	-0.0652468	-0.412402	0.398115	0.743416	1.12511	0	0
0.83	-0.589052	1.32094	2.21501	0.790125	-0.169638	0.99318	0.702547	-0.1528	0.174637	1.12796	-0.0608356	0	0	0.478379	0.00923713	-0.27933	1.34723	-0.21637	0	0	-0.0255346	-0.181927	0.138361	0.0937725	-0.548313	1.03529	0.85364	0.643692	0	0	-0.0631304	-0.411537	0.395106	0.741762	1.12681	0	0
0.84	-0.597292	1.31764	2.22174	0.788838	-0.15994	0.994565	0.691129	-0.162628	0.163343	1.12434	-0.0576685	0	0	0.504397	0.0124814	-0.283652	1.33507	-0.205677	0	0	-0.0262325	-0.186943	0.139999	0.0972074	-0.547101	1.03745	0.852548	0.642376	0	0	-0.0599998	-0.410902	0.393698	0.739567	1.12802	0	0
0.85	-0.605047	1.3144	2.22841	0.787459	-0.150338	0.995811	0.679427	-0.172498	0.152058	1.12087	-0.0539738	0	0	0.529306	0.0162707	-0.286665	1.31817	-0.197397	0	0	-0.02716	-0.191872	0.141879	0.0991987	-0.546024	1.03667	0.851934	0.641205	0	0	-0.0559671	-0.410469	0.393976	0.737141	1.12866	0	0
0.86	-0.612418	1.31089	2.23438	0.786005	-0.140671	0.99685	0.66778	-0.182352	0.141484	1.11714	-0.049893	0	0	0.552804	0.0197599	-0.29065	1.2967	-0.191305	0	0	-0.0273735	-0.196974	0.144897	0.0995153	-0.544965	1.03387	0.851472	0.641928	0	0	-0.0515071	-0.410006	0.395474	0.734179	1.12863	0	0
0.87	-0.619377	1.30779	2.24025	0.78442	-0.130952	0.997747	0.655605	-0.191812	0.131977	1.11314	-0.045333	0	0	0.574488	0.0225132	-0.295599	1.27127	-0.18735	0	0	-0.0277266	-0.201751	0.148297	0.0982969	-0.544086	1.02892	0.851398	0.644531	0	0	-0.0465167	-0.40965	0.398427	0.730962	1.12862	0	0
0.88	-0.626709	1.30547	2.2464	0.782827	-0.121188	0.998517	0.642743	-0.200242	0.124106	1.10942	-0.0412879	0	0	0.593879	0.0230371	-0.303607	1.24325	-0.185181	0	0	-0.0283456	-0.206057	0.149879	0.100549	-0.543158	1.03061	0.850397	0.642828	0	0	-0.0436856	-0.409532	0.398989	0.729028	1.12801	0	0
0.89	-0.648845	1.31176	2.25879	0.78252	-0.110125	0.999498	0.618983	-0.197961	0.125982	1.10593	-0.0326329	0	0	0.592623	-0.0317362	-0.393683	1.23142	-0.205131	0	0	-0.0354904	-0.207436	0.157534	0.106221	-0.54509	1.04048	0.852438	0.635833	0	0	-0.0455349	-0.408975	0.393021	0.731217	1.13182	0	0
0.9	-0.657764	1.31058	2.26748	0.780623	-0.100238	1.00025	0.60565	-0.208306	0.114008	1.10357	-0.0296689	0	0	0.606614	-0.0317092	-0.405535	1.19852	-0.204414	0	0	-0.0408527	-0.211386	0.170685	0.0845125	-0.545771	0.996407	0.858343	0.664019	0	0	-0.0278958	-0.409452	0.416452	0.724675	1.12556	0	0
0.91	-0.665098	1.30859	2.27505	0.778651	-0.0905181	1.00068	0.592671	-0.216628	0.106762	1.10056	-0.0249813	0	0	0.621223	-0.0266168	-0.409992	1.1626	-0.196481	0	0	-0.0379816	-0.215069	0.153204	0.120843	-0.542069	1.06374	0.845494	0.619256	0	0	-0.0464149	-0.406775	0.380224	0.729414	1.14252	0	0
0.92	-0.674058	1.30695	2.2832	0.776834	-0.0809782	1.00103	0.579859	-0.223775	0.101903	1.09763	-0.0208034	0	0	0.633718	-0.0212033	-0.41406	1.12431	-0.18831	0	0	-0.0407216	-0.219317	0.153795	0.1239	-0.540908	1.06569	0.843729	0.619208	0	0	-0.0436871	-0.406971	0.379509	0.729191	1.14312	0	0
0.93	-0.68133	1.30514	2.28987	0.774945	-0.0714776	1.00119	0.568001	-0.230584	0.0976044	1.09488	-0.0181855	0	0	0.645343	-0.0147134	-0.416008	1.0838	-0.181446	0	0	-0.0432112	-0.223343	0.154151	0.12643	-0.539825	1.06642	0.842323	0.619508	0	0	-0.0411931	-0.407454	0.37911	0.729504	1.14356	0	0
0.94	-0.686793	1.30343	2.29526	0.773055	-0.0619487	1.00113	0.55577	-0.234585	0.0980471	1.09212	-0.0145591	0	0	0.655835	-0.00699222	-0.414363	1.04086	-0.17449	0	0	-0.0452682	-0.227042	0.15451	0.127884	-0.538638	1.06564	0.84127	0.620651	0	0	-0.0388718	-0.408802	0.380127	0.730455	1.14437	0	0
0.95	-0.690573	1.30165	2.29901	0.771032	-0.0524789	1.00097	0.544808	-0.240567	0.0936605	1.09024	-0.0116786	0	0	0.665212	0.00239557	-0.409025	0.994382	-0.167994	0	0	-0.0466709	-0.230281	0.155732	0.128011	-0.537634	1.06294	0.840219	0.622299	0	0	-0.0355626	-0.409765	0.382726	0.730124	1.14546	0	0
0.96	-0.692543	1.29974	2.30061	0.769016	-0.0430271	1.00061	0.534585	-0.246002	0.0899484	1.08869	-0.00888324	0	0	0.673451	0.0120327	-0.401132	0.945247	-0.16282	0	0	-0.0473317	-0.233102	0.157294	0.127715	-0.536881	1.0598	0.839626	0.623612	0	0	-0.0322266	-0.410619	0.385629	0.729593	1.14458	0	0
